Coordinates
version=1
nRows=11
nColumns=36
inDegrees=yes

Units are S.I. units (second, meters, Newtons, ...)
If the header above contains a line with 'inDegrees', this indicates whether rotational values are in degrees (yes) or radians (no).

endheader
time	pelvis_tilt	pelvis_list	pelvis_rotation	pelvis_tx	pelvis_ty	pelvis_tz	hip_flexion_r	hip_adduction_r	hip_rotation_r	knee_angle_r	knee_angle_r_beta	ankle_angle_r	subtalar_angle_r	mtp_angle_r	hip_flexion_l	hip_adduction_l	hip_rotation_l	knee_angle_l	knee_angle_l_beta	ankle_angle_l	subtalar_angle_l	mtp_angle_l	lumbar_extension	lumbar_bending	lumbar_rotation	arm_flex_r	arm_add_r	arm_rot_r	elbow_flex_r	pro_sup_r	arm_flex_l	arm_add_l	arm_rot_l	elbow_flex_l	pro_sup_l
      2.78333330	     -6.44172044	      2.25103737	     -3.95844121	     -0.01054248	      1.31514283	     -0.06994687	      1.17864371	      0.77048245	      1.22095433	      2.68525049	      0.04686646	     10.31960308	    -11.39406067	     -7.49999987	      0.86019705	      0.15825509	     -4.51052309	      1.16105065	      0.02026416	     16.18189138	      6.22731625	     -7.49999987	      8.42050605	      1.17019801	      0.59920057	     -2.88661795	     -5.59677467	      7.63709090	     24.18516759	     80.90361194	     -1.63081816	     -3.88301639	      2.12355496	     23.17580422	     82.97428417
      2.80000000	     -7.00721456	      2.21264507	     -3.89636944	     -0.01160487	      1.31530512	     -0.07009549	      2.10704355	      0.85328403	      1.08447071	      3.16797788	      0.05529164	     10.64638693	    -11.30035940	     -7.49999987	      1.81149630	      0.04194733	     -4.40318182	      1.70242236	      0.02971288	     16.35445173	      6.18436078	     -7.49999987	      8.89959572	      1.30248246	      0.53973233	     -2.91497859	     -5.80912091	      9.35692762	     24.43702073	     75.92594283	     -1.70467907	     -4.04894790	      3.83932820	     23.47263922	     77.62200282
      2.81666670	     -6.51399779	      2.12149913	     -3.86092772	     -0.01169627	      1.31559048	     -0.07057743	      1.26785076	      0.91656570	      1.40222389	      2.45949084	      0.04292621	     10.34257300	    -11.59878508	     -7.49999987	      0.98825747	      0.02804198	     -4.23257802	      1.13752183	      0.01985350	     16.19783314	      6.30310599	     -7.49999987	      8.29138611	      1.38899943	      0.56834831	     -2.77005319	     -5.62649596	      7.61112745	     24.11238845	     81.15319729	     -1.48045439	     -3.84938737	      2.27538232	     23.14603591	     83.06375735
      2.83333330	     -6.57048843	      2.08646345	     -3.72769292	     -0.01427000	      1.31350818	     -0.07098746	      1.40319638	      0.94527430	      1.36928487	      2.46586988	      0.04303755	     10.35823473	    -11.68672255	     -7.49999987	      1.16073146	      0.01141404	     -4.12084112	      1.28199470	      0.02237503	     16.33005585	      6.30514998	     -7.49999987	      8.20856123	      1.42359468	      0.51092584	     -2.68452942	     -5.64460149	      7.59044945	     24.16519216	     81.00159800	     -1.30249096	     -3.84769879	      2.40005625	     23.16739709	     83.12411851
      2.85000000	     -6.67214742	      2.05097795	     -3.63126896	     -0.01544647	      1.31259165	     -0.07116029	      1.68466224	      0.97686061	      1.40875061	      2.60689852	      0.04549896	     10.26713968	    -12.02126324	     -7.49999987	      1.42299707	     -0.01277698	     -4.08062998	      1.50989163	      0.02635258	     16.56128545	      6.36950555	     -7.49999987	      8.15112831	      1.46751198	      0.50726352	     -2.60896367	     -5.66851312	      7.43232876	     24.29210190	     80.92587777	     -1.11255009	     -3.89102372	      2.74610490	     23.20448303	     82.98606470
      2.86666670	     -6.65868046	      2.04366001	     -3.61189727	     -0.01157374	      1.31720240	     -0.07050757	      1.71287110	      0.99189704	      1.41276186	      2.60679453	      0.04549715	     10.26616328	    -12.01865643	     -7.49999987	      1.40547855	      0.00007788	     -4.07840925	      1.52101718	      0.02654676	     16.56045824	      6.37135718	     -7.49999987	      8.14655816	      1.46704026	      0.50849045	     -2.60512895	     -5.66768781	      7.43234901	     24.29311929	     80.92572149	     -1.11093759	     -3.89052916	      2.74600166	     23.20488828	     82.98592043
      2.88333330	     -6.69050343	      1.94493546	     -3.35676983	     -0.01277272	      1.31211122	     -0.07156976	      1.88217105	      1.07818660	      1.15535830	      2.87041250	      0.05009815	     10.26304020	    -12.18809617	     -7.49999987	      1.71123892	     -0.10749100	     -3.96349551	      1.94691447	      0.03398007	     16.92830475	      6.55994238	     -7.49999987	      7.99125320	      1.51507328	      0.29638509	     -2.55149959	     -5.68648926	      7.39836040	     24.43502488	     80.72973019	     -1.06654734	     -3.87308846	      2.71999368	     23.35617977	     82.79343633
      2.90000000	     -6.70758600	      1.91544061	     -3.28195782	     -0.01169038	      1.31657423	     -0.07012372	      1.91727605	      1.14021750	      1.07095638	      2.90188816	      0.05064750	     10.23561543	    -12.24177420	     -7.49999987	      1.83470355	     -0.16150129	     -3.83276571	      2.03481335	      0.03551419	     16.96214880	      6.71012749	     -7.49999987	      7.99636893	      1.47331997	      0.24685938	     -2.55893091	     -5.71216233	      8.05142503	     24.37298237	     79.04268301	     -1.12849248	     -3.95547205	      3.38182621	     23.42342406	     81.04720378
      2.91666670	     -7.72834636	      1.90413198	     -3.05628567	     -0.01314180	      1.31465018	     -0.07070657	      3.42806717	      1.19691194	      0.43302459	      3.59317692	      0.06271277	     10.96570975	    -11.36471371	     -7.49999987	      3.48278009	     -0.27753604	     -3.54106062	      2.88675493	      0.05038338	     17.27459812	      6.49982035	     -7.49999987	      9.17787518	      1.46836179	      0.12597853	     -2.85418810	     -5.51690198	      7.68438998	     24.59453824	     70.96306507	     -1.36391953	     -3.78102942	      3.18983426	     23.66466742	     72.48353522
      2.93333330	     -6.74698866	      1.84349007	     -3.07862840	     -0.01098306	      1.31588700	     -0.07026577	      1.90806884	      1.25714331	      1.05444704	      2.80784156	      0.04900608	     10.43590096	    -12.04513403	     -7.49999987	      2.08630966	     -0.30061083	     -3.76672811	      2.25258046	      0.03931495	     17.17776191	      7.23139703	     -7.49999987	      8.04376026	      1.38747052	      0.22333545	     -2.72401226	     -5.53270712	      6.81736605	     24.47346603	     81.32930425	     -1.20809194	     -3.93054278	      2.74404728	     23.57235712	     83.35093846
      2.95000000	     -6.57338134	      1.82966704	     -2.98692026	     -0.00937730	      1.31498486	     -0.07040378	      1.58751265	      1.27223247	      1.08011992	      2.73142184	      0.04767230	     10.40700131	    -12.09856702	     -7.49999987	      1.92157512	     -0.34664088	     -3.75790760	      2.33910783	      0.04082513	     17.30446679	      7.39741100	     -7.49999987	      7.92802224	      1.28054838	      0.20090877	     -2.67027666	     -5.59242354	      8.00539761	     24.34804098	     77.43369337	     -1.25728480	     -4.03453905	      3.82077982	     23.58557630	     79.20983147
